<svg xmlns="http://www.w3.org/2000/svg" class="transition duration-300 ease-in-out delay-150" viewBox="0 0 1440 590"><path fill="#264349" fill-opacity=".4" d="M0 600V337c76.191 7.665 152.383 15.33 246 16s204.66-5.656 316-37 222.976-87.708 309-112 146.435-16.512 237-39 211.282-75.244 332-128v563z" class="transition-all duration-300 ease-in-out delay-150 path-0"/><path fill="#264349" fill-opacity=".53" d="M0 600V487c87.799-9.732 175.598-19.464 275-39s210.407-48.876 299-75 154.775-49.033 242-60 195.493-9.99 303-29 214.254-58.005 321-97v413z" class="transition-all duration-300 ease-in-out delay-150 path-1"/><path fill="#264349" d="M0 600v37c88.057 2.66 176.115 5.32 276 2s211.598-12.622 313-40 192.493-72.833 283-98 180.43-30.048 275-54 193.785-66.976 293-110v263z" class="transition-all duration-300 ease-in-out delay-150 path-2"/></svg>