<svg xmlns="http://www.w3.org/2000/svg" version="1.1" xmlns:xlink="http://www.w3.org/1999/xlink" width="512" height="512"><svg version="1.1" xmlns="http://www.w3.org/2000/svg" width="512" height="512">
<path d="M0 0 C0.99 0.495 0.99 0.495 2 1 C1.65332275 1.44166504 1.30664551 1.88333008 0.94946289 2.33837891 C-13.06225064 20.2531735 -25.15257075 37.69749347 -31 60 C-31.22558594 60.80308594 -31.45117188 61.60617188 -31.68359375 62.43359375 C-36.61217884 82.58980724 -31.25056734 102.54795777 -21 120 C-13.41802426 131.76722635 0.66198114 138.65191077 13.875 141.8125 C28.66303751 144.63844419 45.51957808 143.13726341 60 139 C62.51572602 133.96854795 61.70999165 126.43281497 60.17578125 121.17578125 C58.46920986 116.80950003 58.46920986 116.80950003 55 114 C53.05288851 114.02453029 53.05288851 114.02453029 50.875 114.3125 C50.15054688 114.39113281 49.42609375 114.46976562 48.6796875 114.55078125 C45.80145154 114.98656215 45.80145154 114.98656215 42.2734375 116.0234375 C37.74484647 117.1807441 33.4079567 117.34518575 28.75 117.3125 C27.915896 117.30758545 27.08179199 117.3026709 26.22241211 117.29760742 C13.4753365 117.05709656 2.26879117 112.76728227 -9 107 C-9 106.34 -9 105.68 -9 105 C-7.98421875 104.90203125 -6.9684375 104.8040625 -5.921875 104.703125 C15.72794553 102.43170306 31.5440112 94.36684421 45.5 77.5 C60.38747452 59.56187727 77.81403534 51.95948906 100.8125 49.8125 C103.2662509 49.61158311 105.71953511 49.41175854 108.17504883 49.23364258 C110.09539264 49.0898076 110.09539264 49.0898076 112 48 C111.67 46.68 111.34 45.36 111 44 C103.74 44 96.48 44 89 44 C97.93673752 35.06326248 108.38640387 31.94875105 120.8125 31.8125 C126.42752942 31.8916707 131.98603667 32.23679924 137.57421875 32.78125 C140.09204194 33.04490635 140.09204194 33.04490635 143 33 C142.75621031 29.42441786 142.4937268 27.52458473 140 24.875 C136.16586109 22.47866318 132.17750621 20.7110483 128 19 C128.33 18.34 128.66 17.68 129 17 C155.26140282 16.0488828 155.26140282 16.0488828 166.9375 23.25 C170.85255763 25.48717579 172.53057395 25.73269279 177 25 C178.832975 24.10319168 180.64338302 23.15971744 182.4375 22.1875 C193.56292064 16.32616728 206.62980017 14.52596003 219 17 C219.33 17.66 219.66 18.32 220 19 C219.09507812 19.38091797 219.09507812 19.38091797 218.171875 19.76953125 C214.08170164 21.53094462 210.49730392 23.20215687 207 26 C206.34 26 205.68 26 205 26 C205 28.31 205 30.62 205 33 C206.39798828 32.89171875 206.39798828 32.89171875 207.82421875 32.78125 C226.11996565 31.44930483 241.1748876 31.44992507 257 42 C257 42.66 257 43.32 257 44 C249.74 44 242.48 44 235 44 C235.66 45.65 236.32 47.3 237 49 C237.95777344 49.02578125 238.91554688 49.0515625 239.90234375 49.078125 C262.11774375 49.91628224 281.8925349 56.08065128 298 72 C300.40132847 74.73728539 302.67990213 77.53580736 304.9296875 80.3984375 C316.01993269 94.33448146 330.51587691 101.81547959 348.11083984 104.05151367 C351.40415528 104.42093174 354.6970874 104.72913691 358 105 C351.97226672 112.20753873 337.96551328 115.76479725 329 117 C319.78210772 117.6841643 310.78253011 117.87856933 302.0078125 114.68359375 C298.87084821 113.61556116 296.25886234 113.54375927 293 114 C289.59604269 116.48396885 288.27686445 119.04832468 287 123 C286.721968 126.51568915 286.721968 126.51568915 286.8125 130.1875 C286.81894531 131.41855469 286.82539063 132.64960938 286.83203125 133.91796875 C286.79021867 136.91200187 286.79021867 136.91200187 288 139 C296.4394394 141.30266689 305.26952762 142.58783178 314 143 C315.01449219 143.05285156 316.02898437 143.10570312 317.07421875 143.16015625 C333.50188428 143.61592984 349.37304469 138.76428821 362.0625 128.125 C374.96952699 115.48840595 380.86157991 98.50541264 381.375 80.625 C380.52333026 51.63274261 366.70236223 26.25153592 348.140625 4.66796875 C346 2 346 2 346 0 C368.66016748 5.96320197 389.34457646 25.36727693 401 45 C414.95491843 69.4415644 420.79711425 97.91836948 413.97705078 125.69213867 C407.07089735 150.43295893 391.17370225 173.46834478 368.5625 186.25 C366.72090374 187.19166608 364.86635559 188.1084123 363 189 C362.05382812 189.45246094 361.10765625 189.90492188 360.1328125 190.37109375 C347.95176279 195.81540907 336.22817001 197.54279725 323 197 C324.65788103 203.69891766 326.66211636 208.60695547 331 214 C320.77850133 218.38064229 314.73207806 217.23888717 304.46484375 213.2890625 C298.33852245 210.49217375 298.33852245 210.49217375 292.0390625 210.79296875 C289.626341 213.17236536 288.08545381 214.74363856 287 218 C288.21968784 221.37207815 289.69906184 224.44099476 291.3984375 227.59765625 C298.56497442 241.11221699 302.72982724 255.90828694 298.9375 271.125 C298.32611648 273.09436039 297.67308281 275.05086438 297 277 C296.73703125 277.7621582 296.4740625 278.52431641 296.203125 279.30957031 C294.98732118 282.82233683 293.76576615 286.33258933 292.51342773 289.83251953 C292.21895752 290.65606934 291.9244873 291.47961914 291.62109375 292.328125 C291.3573999 293.0593457 291.09370605 293.79056641 290.82202148 294.54394531 C288.99411544 300.005405 287.73784442 305.10819845 287.2890625 310.859375 C287.17820312 312.14070313 287.06734375 313.42203125 286.953125 314.7421875 C286.73257652 317.39785071 286.52469887 320.05391464 286.3203125 322.7109375 C284.90558648 338.75521673 278.88524138 352.04328072 268 364 C266.05190252 365.58844871 264.20076704 366.76542337 262 368 C262.0721875 367.10539062 262.144375 366.21078125 262.21875 365.2890625 C262.76483576 358.17477852 263.14796439 351.13517147 263 344 C260.15608725 344.30470494 259.07031706 344.92996033 257.01953125 346.97265625 C253.89235561 351.66039537 251.80992123 356.78431781 249.61914062 361.96289062 C246.07353879 369.87327214 241.20770533 374.01220715 233.6875 378.1875 C230.41474124 380.00681306 229.12504488 380.81243268 227 384 C226.53974407 385.84383015 226.12876842 387.70022193 225.75 389.5625 C223.09724568 400.27653686 218.13392662 406.21695762 209.75390625 412.96948242 C202.02519589 419.27348942 198.19106479 427.27952763 193.7109375 436.08203125 C192.06886308 438.88255543 190.39929813 440.83644077 188 443 C183.46510665 441.52922378 181.88995913 437.94703573 179.75 434 C179.38648438 433.35804688 179.02296875 432.71609375 178.6484375 432.0546875 C176 427.29546523 176 427.29546523 176 425 C173.33801609 425.62498753 171.51389195 426.27223394 169.90185547 428.55517578 C168.85326416 430.53402689 167.87898165 432.5304845 166.9375 434.5625 C165.72779132 437.15678615 164.46876813 439.52674631 163 442 C160.87719727 442.70678711 160.87719727 442.70678711 159 443 C154.41760537 437.44405633 151.0082036 431.54172811 147.7109375 425.1484375 C144.6503612 419.51641809 142.03489949 415.65583076 136.625 412.125 C125.79271887 404.46595701 123.11720689 395.75112183 120.0625 383.125 C117.07794975 378.60295417 112.91909106 377.18374505 108.15625 374.78125 C99.9583715 370.15472451 96.75839353 360.87121491 92.83203125 352.70703125 C90.4488744 346.85517967 90.4488744 346.85517967 85.8125 343.1875 C85.214375 343.125625 84.61625 343.06375 84 343 C84.57245694 351.34325541 85.20149383 359.67514847 86 368 C76.43460441 363.63318897 69.79783248 353.2629641 65.640625 343.95703125 C63.28400053 337.63000687 61.94002616 331.77755529 61.67578125 325.01953125 C61.02414297 311.53353379 59.89589746 299.50361503 54.7890625 286.95654297 C53.73397196 284.34036241 52.78608176 281.69095818 51.84301758 279.03271484 C51.23562251 277.32295993 50.60886096 275.62011853 49.98046875 273.91796875 C45.1127428 259.43115089 48.61015958 244.37238863 55.0625 231 C55.75997589 229.60329497 56.45912042 228.20742162 57.16015625 226.8125 C58.74141727 223.59757593 60.18952174 220.51038398 61 217 C58.93558572 213.68442555 57.43588748 211.5019573 53.67578125 210.1875 C50.25487801 209.94778707 48.34213671 210.86050459 45.25 212.3125 C36.93667285 215.96101399 29.08560144 218.44360039 20 216 C18.2109375 214.44921875 18.2109375 214.44921875 17 213 C17.40992187 212.43152344 17.81984375 211.86304688 18.2421875 211.27734375 C21.53029214 206.56544261 23.80218296 202.62974007 25 197 C24.15179688 197.03480469 23.30359375 197.06960937 22.4296875 197.10546875 C-1.46012588 197.65677214 -21.85834941 188.5028101 -39.09057617 172.42456055 C-50.06887388 161.75960546 -57.79985798 149.37397748 -63 135 C-63.38929687 133.93910156 -63.77859375 132.87820312 -64.1796875 131.78515625 C-72.69982527 105.63393048 -69.18479299 77.52304489 -57.07470703 53.13671875 C-51.88937238 42.95186774 -45.73448327 34.38893954 -38 26 C-37.14535156 25.02353516 -37.14535156 25.02353516 -36.2734375 24.02734375 C-28.23906265 15.31313718 -17.70133408 8.54455606 -7.1875 3.25 C-6.49986572 2.90267822 -5.81223145 2.55535645 -5.10375977 2.19750977 C-3.43482614 1.39408945 -1.72006173 0.68717633 0 0 Z M282 166 C281.34 166.763125 280.68 167.52625 280 168.3125 C275.07944653 173.26109082 268.77872896 174.04695797 262.0625 174.375 C254.38915888 174.87415867 248.82539272 177.53529571 243.0625 182.5625 C238.70217284 188.51542893 237.79758712 196.84097592 238 204 C245.26980231 202.36429448 250.93673514 197.11376694 255 191 C255 190.34 255 189.68 255 189 C260.09037377 186.66691202 265.10457924 186.31699305 270.625 185.7578125 C275.51683705 184.6594139 278.04678792 182.4638614 280.75 178.3125 C282.29721906 174.2123695 282.71968549 170.34970789 283 166 C282.67 166 282.34 166 282 166 Z M65 167 C65.29014497 173.39769648 66.32564866 177.70461131 70 183 C74.27250038 185.84833358 78.51716091 185.7890314 83.5546875 186.33984375 C89.24599215 187.4303545 92.08050834 189.67537937 95.3125 194.375 C98.57412655 198.75959885 102.01430363 201.71918718 107 204 C107.66 204 108.32 204 109 204 C109.52993162 195.91854282 108.58275426 188.18112658 103.12890625 181.81640625 C97.47206517 176.67285132 92.86215112 174.84173207 85.1875 174.5625 C77.00623378 174.06614703 71.23869905 172.65382101 65 167 Z M74 195 C72.83698321 201.17940246 72.59185262 205.42303157 76 211 C80.22172201 215.92902622 85.25993454 218.75898589 91.0625 221.5 C98.06284524 224.80991062 103.37696028 228.11881807 106.4375 235.4375 C106.623125 236.283125 106.80875 237.12875 107 238 C107.66 237.67 108.32 237.34 109 237 C109.76267958 223.45607837 109.76267958 223.45607837 104 211.5625 C100.56545503 208.87926175 97.40033414 208.84756482 93.1875 208.625 C87.05960972 208.13713419 83.0825257 207.19822157 78.75 202.625 C77.08617848 200.12926772 75.97018078 197.82969395 75 195 C74.67 195 74.34 195 74 195 Z M272 195 C271.75765625 195.61488281 271.5153125 196.22976562 271.265625 196.86328125 C267.89605289 204.98913399 267.89605289 204.98913399 264 207 C260.02142786 208.32619071 256.18014725 208.32475489 252.0078125 208.5234375 C247.5887616 209.22359881 244.93836209 211.06163791 241.8125 214.1875 C236.96052086 221.71643315 237.29099847 230.45499234 239 239 C241.29153058 236.96750492 241.29153058 236.96750492 242.5 233.3125 C246.38818071 225.36333054 255.05386064 221.89517932 262.66796875 218.25 C267.55079456 215.63273994 272.00166698 212.30034045 274 207 C274.24073194 204.17914272 274.24073194 204.17914272 274.125 201.25 C274.10695313 200.26515625 274.08890625 199.2803125 274.0703125 198.265625 C274.04710937 197.51796875 274.02390625 196.7703125 274 196 C273.34 195.67 272.68 195.34 272 195 Z M139.4375 281.4375 C138.53064453 282.34048828 137.62378906 283.24347656 136.68945312 284.17382812 C122.73629687 298.14722101 110.78492215 311.7493281 110.5 332.5 C110.59992163 342.07313647 112.20234999 351.83318922 119 359 C128.56522751 361.47376574 138.36230834 358.29646839 147 354 C151.88542396 351.03789031 154.38654342 347.50473421 156 342 C156.34865373 338.26806182 156.34865373 338.26806182 155 335 C152.53689447 333.58502448 150.66720558 332.8155125 148 332 C138.86011175 328.9440251 138.86011175 328.9440251 135.4375 325.1875 C133.58041784 321.06962217 132.234452 317.48076314 133.6171875 313 C134.3370081 311.29985229 135.16093353 309.64457028 136 308 C139.68357115 308.78757869 142.61022409 310.28226829 145.90234375 312.0625 C151.10495746 314.38769049 156.55046082 314.17493571 162.140625 314.203125 C163.46305206 314.21167511 163.46305206 314.21167511 164.81219482 314.22039795 C166.67475189 314.2298233 168.53732544 314.23637211 170.39990234 314.24023438 C173.22653863 314.24991961 176.05244098 314.28095793 178.87890625 314.3125 C180.69530822 314.3190331 182.51171535 314.32428236 184.328125 314.328125 C185.16281311 314.3404718 185.99750122 314.3528186 186.85748291 314.36553955 C194.05627286 314.33866965 200.00292397 312.63990953 206.3125 309.1875 C209 308 209 308 211.3125 308.625 C213 310 213 310 214 313 C214.44813139 318.3775767 214.2813176 321.58704894 211.38842773 326.38134766 C208.84654266 329.34471992 205.51901172 330.20756264 201.875 331.3125 C196.49584029 332.85962284 196.49584029 332.85962284 192 336 C191.49688756 341.23236941 192.12677928 344.59439489 195 349 C202.59998172 356.59998172 212.37379762 359.54752945 223 360 C227.10885972 359.37831166 229.42187343 357.62630379 232.25 354.5625 C238.54801764 341.74153551 238.3815539 328.37426276 234 315 C228.79252924 300.3694869 215.37301344 289.11943675 204.609375 278.6015625 C201.79750043 275.84121144 199.1115285 273.05436051 196.5703125 270.04296875 C191.98575613 264.61535566 187.02211598 261.92637035 180 261 C160.39833925 259.58570296 152.62832451 268.19018374 139.4375 281.4375 Z M136.21430969 373.36238098 C134.17238605 376.11612084 134.1159336 378.63792555 134 382 C135.74524385 386.16919365 138.16774728 388.65372282 142 391 C161.61819172 397.36036475 187.69529627 398.12384759 206.875 389.75 C209.79517129 388.0827569 211.70420416 386.60134831 213.3125 383.625 C214.18606391 379.01893575 213.41482751 376.97278075 211 373 C205.42154582 368.61692886 195.498492 369.83933908 188.80078125 369.83203125 C187.72934372 369.82870285 186.65790619 369.82537445 185.55400085 369.82194519 C183.29227119 369.81689712 181.03053412 369.81453621 178.76879883 369.81469727 C175.34118086 369.81251823 171.91388894 369.79436009 168.48632812 369.77539062 C166.27864692 369.77245463 164.07096421 369.77047121 161.86328125 369.76953125 C160.85348709 369.76234573 159.84369293 369.75516022 158.80329895 369.74775696 C146.91511599 369.39811522 146.91511599 369.39811522 136.21430969 373.36238098 Z " fill="#FF59B8" transform="translate(82,35)"></path>
<path d="" fill="#FF58B7" transform="translate(0,0)"></path>
</svg><style>@media (prefers-color-scheme: light) { :root { filter: none; } }
@media (prefers-color-scheme: dark) { :root { filter: none; } }
</style></svg>