<svg xmlns="http://www.w3.org/2000/svg" version="1.1" xmlns:xlink="http://www.w3.org/1999/xlink" xmlns:svgjs="http://svgjs.dev/svgjs" width="1000" height="1000"><g clip-path="url(#SvgjsClipPath1115)"><rect width="1000" height="1000" fill="#000000"></rect><g transform="matrix(29.166666666666668,0,0,29.166666666666668,150,150)"><svg xmlns="http://www.w3.org/2000/svg" width="24" height="24" viewBox="0 0 24 24" fill="none" stroke="currentColor" stroke-width="1.5" stroke-linecap="round" stroke-linejoin="round">
  <style>
    svg { color: #001217; }
    @media (prefers-color-scheme: dark) {
      svg { color: #d5e6f0; }
    }
  </style>
  <circle cx="12" cy="12" r="3"/>
  <path d="M18 12c0-3.3-2.7-6-6-6s-6 2.7-6 6"/>
  <path d="M15 9c0-1.7-1.3-3-3-3S9 7.3 9 9"/>
  <path d="M21 12c0-5-4-9-9-9s-9 4-9 9"/>
  <path d="M15.5 15.5l2 2"/>
  <path d="M8.5 15.5l-2 2"/>
  <path d="M12 15v3"/>
</svg></g></g><defs><clipPath id="SvgjsClipPath1115"><rect width="1000" height="1000" x="0" y="0" rx="350" ry="350"></rect></clipPath></defs></svg>