<svg xmlns="http://www.w3.org/2000/svg" width="1000" height="1000"><g clip-path="url(#SvgjsClipPath1115)"><path d="M0 0h1000v1000H0z"/><svg xmlns="http://www.w3.org/2000/svg" width="24" height="24" fill="none" stroke="currentColor" stroke-linecap="round" stroke-linejoin="round" stroke-width="1.5" transform="translate(150 150)scale(29.16667)" viewBox="0 0 24 24"><style>svg{color:#fff}@media (prefers-color-scheme:dark){svg{color:#d5e6f0}}</style><circle cx="12" cy="12" r="3"/><path d="M18 12c0-3.3-2.7-6-6-6s-6 2.7-6 6"/><path d="M15 9c0-1.7-1.3-3-3-3S9 7.3 9 9"/><path d="M21 12c0-5-4-9-9-9s-9 4-9 9m12.5 3.5 2 2m-9-2-2 2M12 15v3"/></svg></g><defs><clipPath id="SvgjsClipPath1115"><rect width="1000" height="1000" rx="350" ry="350"/></clipPath></defs></svg>